<svg xmlns="http://www.w3.org/2000/svg" width="215.332" height="193.344" viewBox="0 0 215.332 193.344"><defs><style>.a{fill:#c4a2fc;}.b,.c{fill:#151a6a;}.c{font-size:74px;font-family:Roboto-Bold, Roboto;font-weight:700;opacity:0;}</style></defs><g transform="translate(-867.668 -377.32)"><g transform="translate(866.668 376.32)"><path class="a" d="M43.948,43H34.592A15.611,15.611,0,0,0,19,58.592v6.237a40.587,40.587,0,0,0,40.54,40.54H80.162l-35.195-32a3.119,3.119,0,0,1,4.2-4.615l35.323,32.111V83.54A40.587,40.587,0,0,0,43.948,43Z" transform="translate(38.132 88.975)"/><path class="a" d="M91.9,43H82.54A40.587,40.587,0,0,0,42,83.54v17.329l35.323-32.12a3.119,3.119,0,1,1,4.2,4.615l-35.195,32H66.948a40.587,40.587,0,0,0,40.54-40.54V58.592A15.611,15.611,0,0,0,91.9,43Z" transform="translate(86.857 88.975)"/><path class="a" d="M71.063,93.161a46.792,46.792,0,0,1,36.545-23.335A47.893,47.893,0,0,0,94.339,44.834L83.381,33.869a21.864,21.864,0,0,0-30.873,0L41.55,44.834A47.893,47.893,0,0,0,28.281,69.825,46.792,46.792,0,0,1,64.826,93.161V60.267a3.118,3.118,0,0,1,6.237,0Z" transform="translate(57.794 56.116)"/><path class="b" d="M40.829,1A21.829,21.829,0,1,0,62.658,22.829,21.829,21.829,0,0,0,40.829,1Zm0,37.421A15.592,15.592,0,1,1,56.422,22.829,15.592,15.592,0,0,1,40.829,38.421Z" transform="translate(38.132)"/><path class="b" d="M153.8,118.937H113.168a71.067,71.067,0,0,0,8.139-4.631c10.584-7.057,16.905-15.355,16.905-22.188,0-9.377-10.322-11.654-20.164-10.051-6.549-4.26-11.454-7.565-14.523-16.618,6.964,3.524,16.447,5.713,21.945.218,7.1-7.1,2.495-22.818-10.456-35.784-9.355-9.355-27.361-19.568-36.052-10.135-8.66-9.4-26.569.652-36.052,10.135C29.946,42.85,25.355,58.573,32.453,65.668c5.5,5.5,14.987,3.3,21.945-.218-3.137,9.256-8.588,12.77-14.523,16.618-9.72-1.6-20.164.639-20.164,10.051,0,6.861,6.318,15.143,16.905,22.2a70.537,70.537,0,0,0,8.139,4.618H4.118a3.118,3.118,0,1,0,0,6.237H153.8a3.118,3.118,0,1,0,0-6.237Zm-29.85-31.169c3.518,0,8.021.82,8.021,4.338,0,3.78-4.366,10.506-14.13,17.011-13.771,9.178-29.073,11.778-34.185,8.364-5.822-3.876,4.887-14.8,12.549-19.908a54.641,54.641,0,0,1,27.745-9.8Zm-35.613-65.5c5.563,0,14.183,3.951,22.26,12.028,11.027,11.024,14.345,23.058,10.459,26.962S105.125,61.823,94.1,50.8C84.038,40.729,75.98,22.265,88.342,22.265ZM36.862,61.246c-3.9-3.9-.568-15.938,10.459-26.962,8.077-8.077,16.7-12.019,22.26-12.019,12.524,0,4.325,18.452-5.757,28.531C52.8,61.813,40.773,65.153,36.862,61.246Zm25.571-.973a60.856,60.856,0,0,0,5.8-5.074A54.239,54.239,0,0,0,78.961,40.352,54.24,54.24,0,0,0,89.686,55.2a60.858,60.858,0,0,0,5.8,5.074c1.169,2.76,2.139,14.794,14.245,23.859a71.862,71.862,0,0,0-16.986,8.251,47.588,47.588,0,0,0-13.787,13.2,47.587,47.587,0,0,0-13.787-13.2,71.853,71.853,0,0,0-16.986-8.248C60.251,75.1,61.283,62.992,62.434,60.273ZM25.948,92.118c0-3.514,4.494-4.338,8.018-4.338a54.632,54.632,0,0,1,27.754,9.8c7.643,5.1,18.268,16.1,12.549,19.908-5.114,3.43-20.413.817-34.188-8.364C30.313,102.612,25.948,95.886,25.948,92.118Z" transform="translate(0 31.749)"/></g><text class="c" transform="translate(1009 501)"><tspan x="0" y="0">IN</tspan></text></g></svg>